<svg width="56" height="45" viewBox="0 0 82 65" fill="none" xmlns="http://www.w3.org/2000/svg">
    <rect width="82" height="65" rx="30" fill="#9B86BD"/>
        <g clip-path="url(#clip0_837_7)">
            <path d="M40.9987 17.167C41.6617 17.167 42.2976 17.4304 42.7665 17.8992C43.2353 18.3681 43.4987 19.004 43.4987 19.667C43.4987 20.33 43.2353 20.9659 42.7665 21.4348C42.2976 21.9036 41.6617 22.167 40.9987 22.167H32.6654C32.4444 22.167 32.2324 22.2548 32.0761 22.4111C31.9198 22.5674 31.832 22.7793 31.832 23.0003V43.0003C31.832 43.2213 31.9198 43.4333 32.0761 43.5896C32.2324 43.7459 32.4444 43.8337 32.6654 43.8337H40.1654C40.8284 43.8337 41.4643 44.0971 41.9331 44.5659C42.402 45.0347 42.6654 45.6706 42.6654 46.3337C42.6654 46.9967 42.402 47.6326 41.9331 48.1014C41.4643 48.5703 40.8284 48.8337 40.1654 48.8337H32.6654C31.1183 48.8337 29.6345 48.2191 28.5406 47.1251C27.4466 46.0312 26.832 44.5474 26.832 43.0003V23.0003C26.832 21.4532 27.4466 19.9695 28.5406 18.8755C29.6345 17.7816 31.1183 17.167 32.6654 17.167H40.9987ZM51.0987 26.517L55.8137 31.2337C56.2819 31.7024 56.5448 32.3378 56.5448 33.0003C56.5448 33.6628 56.2819 34.2982 55.8137 34.767L51.1004 39.4837C50.6314 39.9527 49.9953 40.2161 49.332 40.2161C48.6688 40.2161 48.0327 39.9527 47.5637 39.4837C47.0947 39.0147 46.8312 38.3786 46.8312 37.7153C46.8312 37.0521 47.0947 36.416 47.5637 35.947L48.0104 35.5003H40.9987C40.3357 35.5003 39.6998 35.2369 39.2309 34.7681C38.7621 34.2993 38.4987 33.6634 38.4987 33.0003C38.4987 32.3373 38.7621 31.7014 39.2309 31.2326C39.6998 30.7637 40.3357 30.5003 40.9987 30.5003H48.0104L47.5637 30.0537C47.3316 29.8214 47.1475 29.5458 47.0219 29.2424C46.8963 28.939 46.8317 28.6139 46.8318 28.2856C46.8319 27.9572 46.8966 27.6321 47.0224 27.3288C47.1481 27.0255 47.3323 26.7499 47.5645 26.5178C47.7968 26.2857 48.0724 26.1016 48.3758 25.976C48.6792 25.8505 49.0043 25.7859 49.3326 25.7859C49.661 25.786 49.9861 25.8508 50.2894 25.9765C50.5927 26.1022 50.8683 26.2864 51.1004 26.5187L51.0987 26.517Z" fill="#340089"/>
        </g>
    <defs>
        <clipPath id="clip0_837_7">
            <rect width="40" height="40" fill="white" transform="translate(21 13)"/>
        </clipPath>
    </defs>
</svg>