<svg xmlns="http://www.w3.org/2000/svg" width="35" height="35" viewBox="0 0 50 50" fill="none">
  <g clip-path="url(#clip0_821_2)">
    <path fill-rule="evenodd" clip-rule="evenodd" d="M16.5428 27.2079C15.9576 26.6219 15.6289 25.8277 15.6289 24.9995C15.6289 24.1714 15.9576 23.3772 16.5428 22.7912L28.3262 11.0037C28.9124 10.4178 29.7074 10.0887 30.5363 10.0889C30.9467 10.089 31.3531 10.1699 31.7322 10.327C32.1113 10.4842 32.4558 10.7145 32.7459 11.0048C33.0361 11.295 33.2662 11.6396 33.4232 12.0188C33.5802 12.398 33.6609 12.8045 33.6608 13.2149C33.6607 13.6253 33.5798 14.0317 33.4226 14.4108C33.2655 14.7899 33.0352 15.1344 32.7449 15.4245L23.172 24.9995L32.747 34.5745C33.0456 34.8627 33.2838 35.2074 33.4478 35.5886C33.6117 35.9698 33.6981 36.3798 33.7019 36.7947C33.7057 37.2096 33.6269 37.6212 33.4699 38.0053C33.313 38.3894 33.0811 38.7384 32.7878 39.032C32.4945 39.3256 32.1457 39.5578 31.7618 39.7151C31.3778 39.8724 30.9663 39.9516 30.5514 39.9482C30.1365 39.9448 29.7264 39.8588 29.345 39.6952C28.9637 39.5316 28.6187 39.2937 28.3303 38.9954L16.5387 27.2079H16.5428Z" fill="white"/>
  </g>
  <defs>
    <clipPath id="clip0_821_2">
      <rect width="50" height="50" fill="white"/>
    </clipPath>
  </defs>
</svg>