<svg xmlns="http://www.w3.org/2000/svg" width="45" height="45" viewBox="0 0 45 45" fill="none">
  <path d="M22.5 26.25C20.9375 26.25 19.6094 25.7031 18.5156 24.6094C17.4219 23.5156 16.875 22.1875 16.875 20.625V9.375C16.875 7.8125 17.4219 6.48438 18.5156 5.39062C19.6094 4.29688 20.9375 3.75 22.5 3.75C24.0625 3.75 25.3906 4.29688 26.4844 5.39062C27.5781 6.48438 28.125 7.8125 28.125 9.375V20.625C28.125 22.1875 27.5781 23.5156 26.4844 24.6094C25.3906 25.7031 24.0625 26.25 22.5 26.25ZM20.625 39.375V33.6094C17.375 33.1719 14.6875 31.7188 12.5625 29.25C10.4375 26.7812 9.375 23.9062 9.375 20.625H13.125C13.125 23.2188 14.0394 25.43 15.8681 27.2588C17.6969 29.0875 19.9075 30.0012 22.5 30C25.0925 29.9988 27.3037 29.0844 29.1337 27.2569C30.9637 25.4294 31.8775 23.2188 31.875 20.625H35.625C35.625 23.9062 34.5625 26.7812 32.4375 29.25C30.3125 31.7188 27.625 33.1719 24.375 33.6094V39.375H20.625Z" fill="white"/>
</svg>